<?xml version="1.0" standalone="no"?>
<!DOCTYPE svg PUBLIC "-//W3C//DTD SVG 20010904//EN"
 "http://www.w3.org/TR/2001/REC-SVG-20010904/DTD/svg10.dtd">
<svg version="1.0" xmlns="http://www.w3.org/2000/svg"
 width="2268.000000pt" height="709.000000pt" viewBox="0 0 2268.000000 709.000000"
 preserveAspectRatio="xMidYMid meet">

<g transform="translate(0.000000,709.000000) scale(0.100000,-0.100000)"
fill="#000000" stroke="none">
<path d="M3967 5832 c-74 -20 -114 -45 -137 -85 -13 -23 -11 -39 22 -179 120
-503 188 -1094 188 -1628 -1 -198 -14 -477 -23 -486 -12 -12 -293 102 -767
311 -671 297 -1037 446 -1360 556 -629 212 -979 239 -1270 97 -67 -32 -101
-57 -160 -117 -143 -145 -200 -309 -200 -577 0 -527 307 -1179 780 -1654 323
-325 689 -536 1072 -619 226 -49 612 -54 813 -11 604 129 1051 568 1444 1416
96 208 238 559 337 834 3 8 21 -27 40 -80 74 -209 219 -459 365 -635 288 -344
649 -537 1081 -576 288 -27 598 41 961 210 311 143 743 450 1114 789 63 57
104 88 107 80 2 -7 9 -38 15 -68 34 -162 170 -330 331 -409 140 -68 218 -84
410 -85 152 0 172 2 255 28 220 67 470 225 688 435 l47 45 0 -44 c0 -25 9 -87
19 -138 76 -368 389 -586 816 -569 151 6 233 26 372 92 230 108 489 324 718
597 l73 86 26 -82 c65 -208 236 -360 482 -428 66 -18 106 -21 244 -22 152 0
172 2 255 28 224 69 466 222 691 438 l81 78 6 -143 c29 -645 250 -957 676
-957 346 0 644 201 922 622 42 64 79 122 81 130 3 8 27 -11 63 -50 94 -101
218 -152 375 -152 168 0 353 86 526 244 l62 56 4 -123 c6 -146 27 -212 93
-284 80 -90 194 -133 350 -133 155 0 310 69 503 224 161 130 406 393 581 623
l55 72 58 -54 c84 -78 253 -187 481 -310 108 -59 197 -110 197 -114 -1 -3 -37
-33 -82 -66 -114 -85 -282 -248 -339 -328 -76 -108 -112 -204 -117 -312 -4
-84 -2 -94 25 -145 101 -193 448 -225 858 -80 302 107 482 282 517 503 29 187
-71 366 -288 513 -46 32 -84 60 -84 63 0 21 620 354 817 438 88 38 105 62 69
98 -37 37 -89 33 -204 -16 -176 -75 -520 -255 -731 -383 -50 -31 -96 -56 -102
-56 -14 0 -307 153 -407 212 -109 65 -194 145 -228 214 -24 49 -26 63 -22 137
3 66 11 97 35 150 100 213 292 376 508 432 79 20 197 20 241 -1 62 -30 106
-129 106 -242 0 -67 2 -74 25 -89 14 -9 45 -16 70 -16 38 0 50 5 71 28 22 27
24 35 20 110 -8 148 -85 267 -213 326 -232 109 -725 -9 -1056 -252 -86 -64
-205 -189 -251 -264 -66 -109 -95 -232 -74 -320 6 -27 -4 -44 -110 -180 -287
-370 -553 -633 -737 -730 -88 -47 -132 -46 -162 5 -17 30 -20 51 -19 140 1
119 26 239 96 452 48 145 46 162 -18 193 -87 41 -292 43 -378 4 -16 -8 -52
-49 -86 -98 -205 -298 -502 -534 -617 -490 -61 23 -74 177 -28 334 64 218 232
475 394 599 166 128 319 156 467 87 85 -40 139 -91 153 -144 12 -50 38 -67
102 -67 56 0 93 37 84 83 -12 51 -29 79 -87 134 -127 119 -376 194 -599 179
-168 -11 -301 -46 -444 -117 -196 -97 -391 -293 -487 -489 -36 -74 -78 -205
-78 -245 0 -28 -137 -277 -226 -410 -190 -285 -406 -466 -593 -496 -58 -9 -68
-8 -110 13 -80 40 -135 159 -168 363 -20 125 -23 507 -4 715 17 198 55 498 92
720 29 180 99 552 105 558 1 2 76 14 166 27 810 117 1239 104 1356 -41 15 -18
34 -59 43 -91 11 -42 22 -61 40 -70 33 -17 84 -16 119 2 24 12 30 22 30 48 0
97 -81 208 -191 260 -150 70 -313 92 -639 84 -239 -6 -355 -16 -698 -63 -106
-15 -194 -25 -196 -23 -3 2 4 40 14 84 27 113 26 122 -19 166 -58 54 -151 83
-266 83 -99 0 -160 -21 -190 -67 -8 -13 -35 -97 -59 -187 -33 -127 -47 -166
-62 -171 -22 -9 -192 -33 -384 -54 -160 -18 -338 -19 -412 -4 -111 23 -165 77
-119 120 46 43 10 89 -69 89 -57 0 -105 -28 -127 -75 -33 -68 20 -154 122
-201 164 -75 375 -81 814 -23 84 11 155 18 158 16 2 -3 -12 -83 -31 -178 -59
-291 -126 -756 -126 -877 0 -29 -17 -50 -132 -169 -252 -257 -483 -425 -686
-497 -87 -31 -202 -35 -274 -10 -143 48 -229 222 -227 458 0 61 3 129 7 151 6
35 11 40 37 43 341 29 553 150 611 348 48 167 -129 304 -392 304 -334 0 -609
-211 -710 -545 -36 -119 -124 -245 -344 -490 -309 -344 -684 -568 -882 -525
-133 28 -212 119 -260 298 -28 107 -28 326 0 468 62 311 229 608 367 654 65
22 149 -23 170 -91 12 -38 -5 -106 -44 -170 -29 -48 -37 -68 -30 -81 16 -29
49 -41 102 -35 57 5 79 25 123 109 60 118 51 218 -28 294 -89 87 -200 119
-383 111 -303 -12 -550 -176 -697 -464 -25 -48 -54 -115 -64 -148 -17 -53 -32
-73 -129 -174 -254 -264 -530 -459 -729 -516 -89 -26 -218 -18 -278 18 -87 51
-154 157 -177 282 -12 65 -14 248 -3 310 7 38 9 40 47 43 157 11 334 63 430
127 183 122 233 330 103 428 -204 153 -560 122 -790 -67 -118 -98 -216 -257
-254 -411 -16 -69 -17 -71 -133 -184 -374 -366 -790 -678 -1154 -865 -227
-117 -442 -186 -638 -206 -357 -36 -662 137 -929 526 -62 91 -190 309 -190
324 0 4 63 4 139 2 345 -11 720 70 1026 223 474 237 739 619 762 1100 27 572
-340 1002 -945 1106 -141 24 -349 26 -452 4 -361 -76 -643 -371 -910 -955 -81
-177 -214 -513 -345 -872 -60 -164 -110 -296 -112 -294 -2 1 4 63 12 137 58
525 41 1164 -45 1662 -46 267 -62 301 -148 332 -72 27 -277 30 -365 7z m2164
-186 c318 -68 502 -391 503 -881 0 -182 -18 -288 -80 -466 -141 -408 -391
-667 -736 -761 -72 -20 -106 -23 -268 -23 -164 0 -194 3 -265 23 -185 54 -323
159 -392 298 -31 64 -37 88 -41 157 -4 80 -2 87 48 222 112 301 196 499 300
710 229 463 407 662 645 721 68 17 206 17 286 0z m-4923 -1272 c392 -58 836
-221 2047 -754 350 -154 593 -251 687 -276 63 -17 66 -19 63 -43 -3 -14 -12
-73 -20 -131 -79 -522 -258 -948 -515 -1223 -199 -212 -437 -336 -734 -384
-141 -22 -452 -14 -591 17 -352 76 -640 243 -945 549 -490 491 -804 1208 -750
1710 45 422 301 603 758 535z m8029 -155 c74 -28 107 -96 79 -163 -50 -119
-183 -202 -353 -222 -76 -8 -76 -8 -30 96 62 141 144 245 222 281 47 22 46 22
82 8z m3759 -9 c51 -25 79 -75 70 -124 -16 -83 -108 -175 -215 -216 -60 -23
-197 -47 -208 -37 -9 10 32 109 80 192 51 88 120 162 172 186 50 23 50 23 101
-1z m6154 -1225 c93 -63 175 -147 196 -201 39 -103 -35 -306 -155 -424 -109
-108 -214 -150 -373 -151 -104 0 -160 15 -199 53 -105 105 -28 338 178 539 80
79 261 229 276 229 5 0 39 -20 77 -45z"/>
<path d="M21397 5186 c-69 -19 -85 -39 -102 -131 -18 -90 -50 -405 -63 -606
-5 -75 -12 -141 -15 -146 -4 -6 -50 -13 -104 -17 -292 -20 -705 -105 -770
-158 -17 -14 -16 -38 2 -58 14 -15 46 -17 353 -12 186 3 376 2 423 -2 l86 -8
7 -211 c10 -313 32 -515 71 -645 19 -62 49 -81 93 -59 l27 12 12 195 c14 218
60 691 68 699 8 7 436 -16 657 -36 176 -15 188 -15 213 1 36 24 47 60 43 143
-4 79 -23 117 -71 141 -40 20 -370 35 -608 28 l-206 -5 14 102 c26 196 75 513
93 602 15 72 16 95 7 115 -25 52 -142 81 -230 56z"/>
</g>
</svg>
